<mxfile host="app.diagrams.net" modified="2024-01-05T19:41:54.605Z" agent="Mozilla/5.0 (Windows NT 10.0; Win64; x64) AppleWebKit/537.36 (KHTML, like Gecko) Chrome/120.0.0.0 Safari/537.36" etag="HzWgBR9crNxwDQuivpTZ" version="22.1.17" type="github">
  <diagram name="PÃ¡gina-1" id="6H2nXYTjNAYbAGV3MO1I">
    <mxGraphModel dx="1305" dy="472" grid="1" gridSize="10" guides="1" tooltips="1" connect="1" arrows="1" fold="1" page="1" pageScale="1" pageWidth="1600" pageHeight="900" math="0" shadow="0">
      <root>
        <mxCell id="0" />
        <mxCell id="1" parent="0" />
        <mxCell id="pBu8umD8giN8HVwgIXOe-20" style="edgeStyle=orthogonalEdgeStyle;rounded=0;orthogonalLoop=1;jettySize=auto;html=1;" edge="1" parent="1" source="pBu8umD8giN8HVwgIXOe-6" target="pBu8umD8giN8HVwgIXOe-8">
          <mxGeometry relative="1" as="geometry">
            <Array as="points">
              <mxPoint x="750" y="350" />
              <mxPoint x="750" y="350" />
            </Array>
          </mxGeometry>
        </mxCell>
        <mxCell id="pBu8umD8giN8HVwgIXOe-25" value="&lt;font style=&quot;font-size: 14px;&quot;&gt;&lt;b&gt;evento&lt;/b&gt;&lt;/font&gt;" style="edgeLabel;html=1;align=center;verticalAlign=middle;resizable=0;points=[];" vertex="1" connectable="0" parent="pBu8umD8giN8HVwgIXOe-20">
          <mxGeometry x="0.0094" y="-1" relative="1" as="geometry">
            <mxPoint as="offset" />
          </mxGeometry>
        </mxCell>
        <mxCell id="pBu8umD8giN8HVwgIXOe-6" value="Amazon API Gateway" style="sketch=0;outlineConnect=0;fontColor=#232F3E;gradientColor=none;strokeColor=#ffffff;fillColor=#232F3E;dashed=0;verticalLabelPosition=middle;verticalAlign=bottom;align=center;html=1;whiteSpace=wrap;fontSize=10;fontStyle=1;spacing=3;shape=mxgraph.aws4.productIcon;prIcon=mxgraph.aws4.api_gateway;" vertex="1" parent="1">
          <mxGeometry x="600" y="320" width="116.36" height="160" as="geometry" />
        </mxCell>
        <mxCell id="pBu8umD8giN8HVwgIXOe-23" style="edgeStyle=orthogonalEdgeStyle;rounded=0;orthogonalLoop=1;jettySize=auto;html=1;" edge="1" parent="1" source="pBu8umD8giN8HVwgIXOe-7" target="pBu8umD8giN8HVwgIXOe-8">
          <mxGeometry relative="1" as="geometry" />
        </mxCell>
        <mxCell id="pBu8umD8giN8HVwgIXOe-7" value="Amazon RDS" style="sketch=0;outlineConnect=0;fontColor=#232F3E;gradientColor=none;strokeColor=#ffffff;fillColor=#232F3E;dashed=0;verticalLabelPosition=middle;verticalAlign=bottom;align=center;html=1;whiteSpace=wrap;fontSize=10;fontStyle=1;spacing=3;shape=mxgraph.aws4.productIcon;prIcon=mxgraph.aws4.rds;" vertex="1" parent="1">
          <mxGeometry x="1090" y="320" width="128" height="160" as="geometry" />
        </mxCell>
        <mxCell id="pBu8umD8giN8HVwgIXOe-22" style="edgeStyle=orthogonalEdgeStyle;rounded=0;orthogonalLoop=1;jettySize=auto;html=1;" edge="1" parent="1" source="pBu8umD8giN8HVwgIXOe-8" target="pBu8umD8giN8HVwgIXOe-7">
          <mxGeometry relative="1" as="geometry">
            <Array as="points">
              <mxPoint x="1040" y="350" />
              <mxPoint x="1040" y="350" />
            </Array>
          </mxGeometry>
        </mxCell>
        <mxCell id="pBu8umD8giN8HVwgIXOe-26" value="&lt;b&gt;query&lt;/b&gt;" style="edgeLabel;html=1;align=center;verticalAlign=middle;resizable=0;points=[];" vertex="1" connectable="0" parent="pBu8umD8giN8HVwgIXOe-22">
          <mxGeometry x="0.1373" y="-2" relative="1" as="geometry">
            <mxPoint x="-1" as="offset" />
          </mxGeometry>
        </mxCell>
        <mxCell id="pBu8umD8giN8HVwgIXOe-8" value="AWS Lambda" style="sketch=0;outlineConnect=0;fontColor=#232F3E;gradientColor=none;strokeColor=#ffffff;fillColor=#232F3E;dashed=0;verticalLabelPosition=middle;verticalAlign=bottom;align=center;html=1;whiteSpace=wrap;fontSize=10;fontStyle=1;spacing=3;shape=mxgraph.aws4.productIcon;prIcon=mxgraph.aws4.lambda;" vertex="1" parent="1">
          <mxGeometry x="860" y="320" width="128" height="160" as="geometry" />
        </mxCell>
        <mxCell id="pBu8umD8giN8HVwgIXOe-13" style="edgeStyle=orthogonalEdgeStyle;rounded=0;orthogonalLoop=1;jettySize=auto;html=1;" edge="1" parent="1" source="pBu8umD8giN8HVwgIXOe-9" target="pBu8umD8giN8HVwgIXOe-10">
          <mxGeometry relative="1" as="geometry">
            <mxPoint x="360" y="270" as="sourcePoint" />
            <Array as="points" />
          </mxGeometry>
        </mxCell>
        <mxCell id="pBu8umD8giN8HVwgIXOe-14" value="token" style="edgeLabel;html=1;align=center;verticalAlign=middle;resizable=0;points=[];" vertex="1" connectable="0" parent="pBu8umD8giN8HVwgIXOe-13">
          <mxGeometry x="0.1335" y="-1" relative="1" as="geometry">
            <mxPoint as="offset" />
          </mxGeometry>
        </mxCell>
        <mxCell id="pBu8umD8giN8HVwgIXOe-9" value="Amazon Cognito" style="sketch=0;outlineConnect=0;fontColor=#232F3E;gradientColor=none;strokeColor=#ffffff;fillColor=#232F3E;dashed=0;verticalLabelPosition=middle;verticalAlign=bottom;align=center;html=1;whiteSpace=wrap;fontSize=10;fontStyle=1;spacing=3;shape=mxgraph.aws4.productIcon;prIcon=mxgraph.aws4.cognito;" vertex="1" parent="1">
          <mxGeometry x="380" y="190" width="120" height="150" as="geometry" />
        </mxCell>
        <mxCell id="pBu8umD8giN8HVwgIXOe-15" style="edgeStyle=orthogonalEdgeStyle;rounded=0;orthogonalLoop=1;jettySize=auto;html=1;" edge="1" parent="1" source="pBu8umD8giN8HVwgIXOe-10">
          <mxGeometry relative="1" as="geometry">
            <mxPoint x="600" y="385" as="targetPoint" />
          </mxGeometry>
        </mxCell>
        <mxCell id="pBu8umD8giN8HVwgIXOe-16" value="&lt;font style=&quot;font-size: 14px;&quot;&gt;&lt;b&gt;token + request http&lt;/b&gt;&lt;/font&gt;" style="edgeLabel;html=1;align=center;verticalAlign=middle;resizable=0;points=[];" vertex="1" connectable="0" parent="pBu8umD8giN8HVwgIXOe-15">
          <mxGeometry x="0.1013" y="5" relative="1" as="geometry">
            <mxPoint as="offset" />
          </mxGeometry>
        </mxCell>
        <mxCell id="pBu8umD8giN8HVwgIXOe-10" value="" style="points=[[0.35,0,0],[0.98,0.51,0],[1,0.71,0],[0.67,1,0],[0,0.795,0],[0,0.65,0]];verticalLabelPosition=bottom;sketch=0;html=1;verticalAlign=top;aspect=fixed;align=center;pointerEvents=1;shape=mxgraph.cisco19.user;fillColor=#005073;strokeColor=none;" vertex="1" parent="1">
          <mxGeometry x="30" y="310" width="150" height="150" as="geometry" />
        </mxCell>
        <mxCell id="pBu8umD8giN8HVwgIXOe-11" style="edgeStyle=orthogonalEdgeStyle;rounded=0;orthogonalLoop=1;jettySize=auto;html=1;entryX=0.083;entryY=0.267;entryDx=0;entryDy=0;entryPerimeter=0;" edge="1" parent="1" source="pBu8umD8giN8HVwgIXOe-10" target="pBu8umD8giN8HVwgIXOe-9">
          <mxGeometry relative="1" as="geometry">
            <Array as="points">
              <mxPoint x="105" y="230" />
            </Array>
          </mxGeometry>
        </mxCell>
        <mxCell id="pBu8umD8giN8HVwgIXOe-12" value="&lt;font style=&quot;font-size: 14px;&quot;&gt;&lt;b&gt;credenciales&lt;/b&gt;&lt;/font&gt;" style="edgeLabel;html=1;align=center;verticalAlign=middle;resizable=0;points=[];" vertex="1" connectable="0" parent="pBu8umD8giN8HVwgIXOe-11">
          <mxGeometry x="0.1486" relative="1" as="geometry">
            <mxPoint as="offset" />
          </mxGeometry>
        </mxCell>
        <mxCell id="pBu8umD8giN8HVwgIXOe-21" style="edgeStyle=orthogonalEdgeStyle;rounded=0;orthogonalLoop=1;jettySize=auto;html=1;entryX=1.031;entryY=0.5;entryDx=0;entryDy=0;entryPerimeter=0;" edge="1" parent="1" source="pBu8umD8giN8HVwgIXOe-8" target="pBu8umD8giN8HVwgIXOe-6">
          <mxGeometry relative="1" as="geometry" />
        </mxCell>
      </root>
    </mxGraphModel>
  </diagram>
</mxfile>
